<svg width="48" height="48" viewBox="0 0 48 48" fill="none" xmlns="http://www.w3.org/2000/svg">
<path d="M23.9994 2.68115C35.7735 2.68157 45.3201 12.2258 45.3205 23.9999C45.3201 35.774 35.7735 45.3206 23.9994 45.321C12.2253 45.3206 2.68109 35.774 2.68066 23.9999C2.68109 12.2258 12.2253 2.68157 23.9994 2.68115ZM23.9994 5.32021C13.6834 5.32064 5.32015 13.6838 5.31973 23.9999C5.32015 34.316 13.6834 42.6792 23.9994 42.6796C34.3155 42.6792 42.6787 34.316 42.6791 23.9999C42.6787 13.6838 34.3155 5.32064 23.9994 5.32021ZM34.0025 17.8593L22.0025 31.8585L21.0744 32.9413L14.0666 25.9335L14.9994 24.9983L15.9322 24.0655L20.9221 29.0554L31.9963 16.139L34.0025 17.8593Z" fill="white" fill-opacity="0.8"/>
</svg>
