<svg width="20" height="21" viewBox="0 0 20 21" fill="none" xmlns="http://www.w3.org/2000/svg">
<path d="M11 2.40039C12.3828 2.4004 13.5324 2.46219 14.4678 2.67285C15.4151 2.88627 16.1855 3.26087 16.7627 3.91504C17.3328 4.56114 17.659 5.41683 17.8486 6.48047C18.038 7.54251 18.0996 8.86754 18.0996 10.5C18.0996 12.1309 18.0379 13.4608 17.8311 14.5283C17.623 15.6018 17.2578 16.4647 16.6113 17.1113C15.9648 17.7579 15.1017 18.123 14.0283 18.3311C12.9609 18.5379 11.6308 18.5996 10 18.5996C8.36763 18.5996 7.04247 18.5379 5.98047 18.3486C4.91683 18.159 4.06112 17.8327 3.41504 17.2627C2.76085 16.6854 2.38622 15.9152 2.17285 14.9678C1.96221 14.0323 1.90039 12.8829 1.90039 11.5H3.10059C3.10059 12.8669 3.16292 13.9053 3.34277 14.7041C3.5199 15.4907 3.80103 16.0022 4.20898 16.3623C4.6253 16.7296 5.23959 16.9973 6.19141 17.167C7.14485 17.3369 8.38282 17.3994 10 17.3994C11.6188 17.3994 12.8518 17.337 13.7998 17.1533C14.7416 16.9708 15.3469 16.6785 15.7627 16.2627C16.1784 15.8469 16.4708 15.2416 16.6533 14.2998C16.837 13.3518 16.8994 12.1188 16.8994 10.5C16.8994 8.88273 16.837 7.64488 16.667 6.69141C16.4973 5.73959 16.2296 5.12532 15.8623 4.70898C15.5022 4.30099 14.9906 4.01994 14.2041 3.84277C13.4053 3.66287 12.3669 3.59962 11 3.59961V2.40039ZM7.0957 2.07422L6.0957 10.0742L4.9043 9.92578L5.9043 1.92578L7.0957 2.07422ZM4.42383 3.92383L2.34766 6L4.42383 8.07617L3.57617 8.92383L1.07617 6.42383L0.651367 6L1.07617 5.57617L3.57617 3.07617L4.42383 3.92383ZM10.9238 5.57617L11.3486 6L10.9238 6.42383L8.42383 8.92383L7.57617 8.07617L9.65234 6L7.57617 3.92383L8.42383 3.07617L10.9238 5.57617Z" fill="white" fill-opacity="0.6"/>
</svg>
