<svg width="20" height="20" viewBox="0 0 20 20" fill="none" xmlns="http://www.w3.org/2000/svg">
<path d="M10 2.3999C14.1972 2.3999 17.5994 5.80233 17.5996 9.99951C17.5996 14.1969 14.1974 17.5991 10 17.5991C5.80282 17.5989 2.40039 14.1967 2.40039 9.99951C2.4006 5.80246 5.80295 2.40011 10 2.3999ZM10.5996 5.37061L10.2686 5.53662L8.46484 6.43799L7.91992 7.70752L10.8145 9.48877L11.2822 9.77686L11.0371 10.2681L10.0996 12.1431V14.8853L9.27734 14.5562L6.77734 13.5562L6.45508 13.4282L6.40625 13.0845L5.90625 9.58447L5.88184 9.41748L5.94824 9.26318L6.40918 8.18604L4.37891 6.93604C3.88195 7.84584 3.59968 8.88988 3.59961 9.99951C3.59961 13.534 6.46556 16.3997 10 16.3999C12.171 16.3999 14.0878 15.3177 15.2451 13.6646L13.125 11.9683L12.7773 11.6899L12.9434 11.2769L13.7373 9.28955L11.2314 8.03662L10.4238 7.63232L11.1094 7.04443L13.7285 4.79932C12.8309 4.15469 11.7608 3.73528 10.5996 3.62744V5.37061ZM7.11719 9.58154L7.54395 12.5708L8.90039 13.1138V11.8579L8.96289 11.731L9.7168 10.2212L7.44238 8.82178L7.11719 9.58154ZM12.5762 7.36572L14.7686 8.4624L15.2617 8.70947L15.0566 9.22217L14.2217 11.3081L15.8447 12.606C16.2004 11.8096 16.4004 10.928 16.4004 9.99951C16.4003 8.29252 15.731 6.74272 14.6416 5.59521L12.5762 7.36572ZM9.40039 3.62744C7.65085 3.79013 6.10554 4.65693 5.05078 5.94189L6.88672 7.07178L7.44824 5.76318L7.53516 5.56104L7.73145 5.4624L9.40039 4.62744V3.62744Z" fill="white" fill-opacity="0.6"/>
</svg>
